<svg width="20" height="20" viewBox="0 0 20 20" fill="none" xmlns="http://www.w3.org/2000/svg">
<path d="M9.99992 12.4999C10.884 12.4999 11.7318 12.1487 12.3569 11.5236C12.9821 10.8985 13.3333 10.0506 13.3333 9.16658V4.16658C13.3333 3.28253 12.9821 2.43468 12.3569 1.80956C11.7318 1.18444 10.884 0.833252 9.99992 0.833252C9.11586 0.833252 8.26802 1.18444 7.6429 1.80956C7.01777 2.43468 6.66659 3.28253 6.66659 4.16658V9.16658C6.66659 10.0506 7.01777 10.8985 7.6429 11.5236C8.26802 12.1487 9.11586 12.4999 9.99992 12.4999ZM8.33325 4.16658C8.33325 3.72456 8.50885 3.30063 8.82141 2.98807C9.13397 2.67551 9.55789 2.49992 9.99992 2.49992C10.4419 2.49992 10.8659 2.67551 11.1784 2.98807C11.491 3.30063 11.6666 3.72456 11.6666 4.16658V9.16658C11.6666 9.60861 11.491 10.0325 11.1784 10.3451C10.8659 10.6577 10.4419 10.8333 9.99992 10.8333C9.55789 10.8333 9.13397 10.6577 8.82141 10.3451C8.50885 10.0325 8.33325 9.60861 8.33325 9.16658V4.16658ZM16.6666 9.16658C16.6666 8.94557 16.5788 8.73361 16.4225 8.57733C16.2662 8.42105 16.0543 8.33325 15.8333 8.33325C15.6122 8.33325 15.4003 8.42105 15.244 8.57733C15.0877 8.73361 14.9999 8.94557 14.9999 9.16658C14.9999 10.4927 14.4731 11.7644 13.5355 12.7021C12.5978 13.6398 11.326 14.1666 9.99992 14.1666C8.67384 14.1666 7.40207 13.6398 6.46438 12.7021C5.5267 11.7644 4.99992 10.4927 4.99992 9.16658C4.99992 8.94557 4.91212 8.73361 4.75584 8.57733C4.59956 8.42105 4.3876 8.33325 4.16659 8.33325C3.94557 8.33325 3.73361 8.42105 3.57733 8.57733C3.42105 8.73361 3.33325 8.94557 3.33325 9.16658C3.33472 10.7893 3.92802 12.3558 5.00192 13.5724C6.07581 14.789 7.55657 15.5721 9.16658 15.7749V17.4999H7.49992C7.2789 17.4999 7.06694 17.5877 6.91066 17.744C6.75438 17.9003 6.66659 18.1122 6.66659 18.3333C6.66659 18.5543 6.75438 18.7662 6.91066 18.9225C7.06694 19.0788 7.2789 19.1666 7.49992 19.1666H12.4999C12.7209 19.1666 12.9329 19.0788 13.0892 18.9225C13.2455 18.7662 13.3333 18.5543 13.3333 18.3333C13.3333 18.1122 13.2455 17.9003 13.0892 17.744C12.9329 17.5877 12.7209 17.4999 12.4999 17.4999H10.8333V15.7749C12.4433 15.5721 13.924 14.789 14.9979 13.5724C16.0718 12.3558 16.6651 10.7893 16.6666 9.16658Z" fill="#BAC1CE"/>
</svg>
