<svg width="20" height="20" viewBox="0 0 20 20" fill="none" xmlns="http://www.w3.org/2000/svg">
<path d="M18.2664 9.66671C16.583 5.75837 13.4164 3.33337 9.99969 3.33337C6.58302 3.33337 3.41636 5.75837 1.73302 9.66671C1.68714 9.77185 1.66345 9.88533 1.66345 10C1.66345 10.1148 1.68714 10.2282 1.73302 10.3334C3.41636 14.2417 6.58302 16.6667 9.99969 16.6667C13.4164 16.6667 16.583 14.2417 18.2664 10.3334C18.3122 10.2282 18.3359 10.1148 18.3359 10C18.3359 9.88533 18.3122 9.77185 18.2664 9.66671ZM9.99969 15C7.35802 15 4.85802 13.0917 3.41636 10C4.85802 6.90837 7.35802 5.00004 9.99969 5.00004C12.6414 5.00004 15.1414 6.90837 16.583 10C15.1414 13.0917 12.6414 15 9.99969 15ZM9.99969 6.66671C9.34042 6.66671 8.69595 6.8622 8.14779 7.22848C7.59963 7.59475 7.17238 8.11534 6.92009 8.72443C6.6678 9.33352 6.60179 10.0037 6.7304 10.6503C6.85902 11.2969 7.17649 11.8909 7.64267 12.3571C8.10884 12.8232 8.70279 13.1407 9.34939 13.2693C9.99599 13.3979 10.6662 13.3319 11.2753 13.0796C11.8844 12.8273 12.405 12.4001 12.7713 11.8519C13.1375 11.3038 13.333 10.6593 13.333 10C13.333 9.11599 12.9818 8.26814 12.3567 7.64302C11.7316 7.0179 10.8837 6.66671 9.99969 6.66671ZM9.99969 11.6667C9.67005 11.6667 9.34782 11.569 9.07374 11.3858C8.79966 11.2027 8.58604 10.9424 8.45989 10.6378C8.33374 10.3333 8.30074 9.99819 8.36505 9.67489C8.42936 9.35159 8.58809 9.05462 8.82118 8.82153C9.05427 8.58844 9.35124 8.42971 9.67454 8.3654C9.99784 8.30109 10.333 8.3341 10.6375 8.46024C10.942 8.58639 11.2023 8.80001 11.3855 9.07409C11.5686 9.34817 11.6664 9.6704 11.6664 10C11.6664 10.4421 11.4908 10.866 11.1782 11.1786C10.8656 11.4911 10.4417 11.6667 9.99969 11.6667Z" fill="#BAC1CE"/>
</svg>
